<svg width="33" height="33" viewBox="0 0 33 33" fill="none" xmlns="http://www.w3.org/2000/svg">
<path d="M17.4898 14.85C16.8298 14.685 16.1698 14.355 15.6748 13.86C15.1798 13.695 15.0148 13.2 15.0148 12.87C15.0148 12.54 15.1798 12.045 15.5098 11.88C16.0048 11.55 16.4998 11.22 16.9948 11.385C17.9848 11.385 18.8098 11.88 19.3048 12.54L20.7898 10.56C20.2948 10.065 19.7998 9.73499 19.3048 9.40499C18.8098 9.07499 18.1498 8.90999 17.4898 8.90999V6.59999H15.5098V8.90999C14.6848 9.07499 13.8598 9.56999 13.1998 10.23C12.5398 11.055 12.0448 12.045 12.2098 13.035C12.2098 14.025 12.5398 15.015 13.1998 15.675C14.0248 16.5 15.1798 16.995 16.1698 17.49C16.6648 17.655 17.3248 17.985 17.8198 18.315C18.1498 18.645 18.3148 19.14 18.3148 19.635C18.3148 20.13 18.1498 20.625 17.8198 21.12C17.3248 21.615 16.6648 21.78 16.1698 21.78C15.5098 21.78 14.6848 21.615 14.1898 21.12C13.6948 20.79 13.1998 20.295 12.8698 19.8L11.2198 21.615C11.7148 22.275 12.2098 22.77 12.8698 23.265C13.6948 23.76 14.6848 24.255 15.6748 24.255V26.4H17.4898V23.925C18.4798 23.76 19.3048 23.265 19.9648 22.605C20.7898 21.78 21.2848 20.46 21.2848 19.305C21.2848 18.315 20.9548 17.16 20.1298 16.5C19.3048 15.675 18.4798 15.18 17.4898 14.85ZM16.4998 3.29999C9.2398 3.29999 3.2998 9.23999 3.2998 16.5C3.2998 23.76 9.2398 29.7 16.4998 29.7C23.7598 29.7 29.6998 23.76 29.6998 16.5C29.6998 9.23999 23.7598 3.29999 16.4998 3.29999ZM16.4998 27.885C10.2298 27.885 5.1148 22.77 5.1148 16.5C5.1148 10.23 10.2298 5.11499 16.4998 5.11499C22.7698 5.11499 27.8848 10.23 27.8848 16.5C27.8848 22.77 22.7698 27.885 16.4998 27.885Z" fill="white"/>
</svg>
