<svg width="25" height="31" viewBox="0 0 25 31" fill="none" xmlns="http://www.w3.org/2000/svg">
<path d="M12.6909 17.4453L12.7012 17.3975C12.8994 16.5806 13.1489 15.562 12.9541 14.6392C12.8242 13.9111 12.2876 13.6274 11.8296 13.6069C11.2896 13.583 10.8076 13.8906 10.688 14.3384C10.4624 15.1587 10.6641 16.2798 11.0332 17.7085C10.5684 18.8159 9.82666 20.4258 9.2832 21.3828C8.27148 21.9058 6.91455 22.7124 6.71289 23.731C6.67188 23.9189 6.71973 24.1582 6.83252 24.3735C6.95898 24.6128 7.16064 24.7974 7.39648 24.8862C7.49902 24.9238 7.62207 24.9546 7.76563 24.9546C8.36719 24.9546 9.34131 24.4692 10.6401 22.2407C10.8384 22.1758 11.0435 22.1074 11.2417 22.0391C12.1714 21.7246 13.1353 21.3965 14.0068 21.2495C14.9707 21.7656 16.0679 22.0972 16.813 22.0972C17.5513 22.0972 17.8418 21.6597 17.9512 21.3965C18.1426 20.9351 18.0503 20.354 17.7393 20.043C17.2881 19.5986 16.1909 19.4824 14.4819 19.6943C13.6411 19.1816 13.0908 18.4844 12.6909 17.4453ZM8.94141 22.6372C8.46631 23.3276 8.10742 23.6729 7.9126 23.8232C8.1416 23.4028 8.58936 22.9585 8.94141 22.6372ZM11.9355 14.5879C12.1133 14.8921 12.0894 15.8115 11.9526 16.2764C11.7852 15.5962 11.7612 14.6323 11.8604 14.5195C11.8877 14.5229 11.9116 14.5435 11.9355 14.5879ZM11.8809 18.7065C12.2466 19.3389 12.708 19.8823 13.2173 20.2856C12.479 20.4531 11.8057 20.73 11.2041 20.9761C11.0605 21.0342 10.9204 21.0923 10.7837 21.147C11.2383 20.3232 11.6177 19.3901 11.8809 18.7065ZM17.1992 20.9453C17.2026 20.9521 17.2061 20.9624 17.1855 20.9761H17.1787L17.1719 20.9863C17.1445 21.0034 16.8643 21.1675 15.6577 20.6924C17.0454 20.6274 17.1958 20.9419 17.1992 20.9453ZM23.7412 7.67676L16.3857 0.321289C16.1807 0.116211 15.9038 0 15.6133 0H1.09375C0.48877 0 0 0.48877 0 1.09375V29.5312C0 30.1362 0.48877 30.625 1.09375 30.625H22.9688C23.5737 30.625 24.0625 30.1362 24.0625 29.5312V8.45264C24.0625 8.16211 23.9463 7.88184 23.7412 7.67676ZM21.54 8.95508H15.1074V2.52246L21.54 8.95508ZM21.6016 28.1641H2.46094V2.46094H12.7832V9.84375C12.7832 10.2245 12.9344 10.5896 13.2037 10.8588C13.4729 11.1281 13.838 11.2793 14.2188 11.2793H21.6016V28.1641Z" fill="white"/>
</svg>
